<svg xmlns="http://www.w3.org/2000/svg" width="32" height="32" viewBox="0 0 32 32">
  <g id="Icon" transform="translate(0.5 -3.961)">
    <rect id="Frame" width="32" height="32" transform="translate(-0.5 3.961)" fill="none"/>
    <path id="icons8-add" d="M13,3A10,10,0,1,0,23,13,10.029,10.029,0,0,0,13,3Zm4.167,10.833H13.833v3.333a.833.833,0,1,1-1.667,0V13.833H8.833a.833.833,0,0,1,0-1.667h3.333V8.833a.833.833,0,0,1,1.667,0v3.333h3.333a.833.833,0,1,1,0,1.667Z" transform="translate(2.5 6.961)" fill="#929fb2"/>
  </g>
</svg>
