<svg id="Search_Glyph_-_Light" data-name="Search Glyph - Light" xmlns="http://www.w3.org/2000/svg" width="24" height="19" viewBox="0 0 24 19">
  <g id="Search_Glyph" data-name="Search Glyph" transform="translate(0 0)">
    <rect id="frame" width="24" height="19" transform="translate(0 0)" fill="none"/>
    <path id="icons8-add_user_male" d="M10.111,2A3.2,3.2,0,0,0,6.556,5.431,3.308,3.308,0,0,0,6.868,6.7a.659.659,0,0,0-.28.684c.1.733.427.92.637.935A2.977,2.977,0,0,0,8.333,10v1.143C7.741,12.858,3,11.715,3,15.715H9.829A4.954,4.954,0,0,1,9.519,14a5.126,5.126,0,0,1,2.973-4.607A2.482,2.482,0,0,0,13,8.314c.21-.015.539-.2.637-.935a.659.659,0,0,0-.28-.684,2.939,2.939,0,0,0,.313-1.265c0-1.387-.565-2.571-1.778-2.571A1.9,1.9,0,0,0,10.111,2Zm4.741,8A4.076,4.076,0,0,0,10.7,14,4.151,4.151,0,0,0,19,14,4.076,4.076,0,0,0,14.852,10Zm0,1.714a.582.582,0,0,1,.593.571v1.143H16.63a.572.572,0,1,1,0,1.143H15.444v1.143a.593.593,0,0,1-1.185,0V14.572H13.074a.572.572,0,1,1,0-1.143h1.185V12.287A.582.582,0,0,1,14.852,11.715Z" transform="translate(1 -0.002)" fill="#7d8da4"/>
  </g>
</svg>
