<svg xmlns="http://www.w3.org/2000/svg" width="32" height="32" viewBox="0 0 32 32">
  <g id="Group_62515" data-name="Group 62515" transform="translate(-216 -222)">
    <circle id="Ellipse_239" data-name="Ellipse 239" cx="16" cy="16" r="16" transform="translate(216 222)" fill="#0075f4"/>
    <path id="icons8-administrator_male" d="M13,3C9.465,3,8,5.269,8,8a4.964,4.964,0,0,0,.439,1.844.974.974,0,0,0-.394,1c.137,1.069.6,1.341.9,1.364A4.35,4.35,0,0,0,10.5,14.667v1.667c0,.005-.006.009-.008.015a.828.828,0,0,0-.646.449l-.26.524C7.529,18.475,3,18.189,3,23h8.587l1-3.263L11.634,18h2.731l-.949,1.737,1,3.263h2.754v-.833A.834.834,0,0,1,18,21.334h1.667a.834.834,0,0,1,.833.833V23H23c0-4.811-4.529-4.525-6.585-5.679l-.26-.524a.828.828,0,0,0-.646-.449c0-.005-.006-.009-.008-.015V14.667a4.35,4.35,0,0,0,1.559-2.459c.3-.023.759-.295.9-1.364a.974.974,0,0,0-.394-1A4.407,4.407,0,0,0,18,8c0-2.023-.794-3.75-2.5-3.75A2.651,2.651,0,0,0,13,3Z" transform="translate(219 224.999)" fill="#fcffff"/>
  </g>
</svg>
