<svg xmlns="http://www.w3.org/2000/svg" width="32" height="32" viewBox="0 0 32 32">
  <g id="Group_62517" data-name="Group 62517" transform="translate(-30 -222)">
    <circle id="Ellipse_239" data-name="Ellipse 239" cx="16" cy="16" r="16" transform="translate(30 222)" fill="#274268"/>
    <path id="icons8-management" d="M4.4,3a1.556,1.556,0,0,0-1.068.667c-3.49,0-1.565,5.571-2.59,6.392,0,0,.629.777,2.59.777V11.5C2.792,12.913,0,12.391,0,15H3.5L4,13l-.333-.667H5L4.667,13l.5,2h.182c.469-.284,1.984-1.072,1.984-1.072a5.747,5.747,0,0,1-1.074-1.561,1.709,1.709,0,0,1-.926-.866v-.673a4.664,4.664,0,0,0,.632-.059,4.911,4.911,0,0,1-.548-2.087,4.169,4.169,0,0,1,1.7-3.48A2.584,2.584,0,0,0,4.4,3ZM15.333,3a2.589,2.589,0,0,0-2.612,2.355A3.7,3.7,0,0,1,14.5,8.745a4.218,4.218,0,0,1-.238,1.327,2.449,2.449,0,0,1,.072.605c0,1.647-1.667,3.289-1.667,3.289.362.158,1.52.747,1.993,1.034h.007L15,12.333l-.333-.667H16l-.333.667L16,15h4c0-3.5-2.842-2.5-3.333-4V10a2.567,2.567,0,0,0,.815-1.477A.952.952,0,0,0,18,7.707c0-.379-.121-.539-.225-.6A3,3,0,0,0,18,6c0-1.214-.328-2.333-1.333-2.333A1.368,1.368,0,0,0,15.333,3ZM10,5.667A2.978,2.978,0,0,0,6.75,8.682a2.757,2.757,0,0,0,.458,1.456S7,10.24,7,10.677a1.038,1.038,0,0,0,.546,1.052c.076.672,1.121,1.656,1.121,1.656v1.124c-.561,1.684-4,.574-4,4.491H9.333l.333-2.667-.333-.667h1.333l-.333.667L10.667,19h4.667c0-3.93-3.439-2.807-4-4.491V13.385s1.045-.984,1.121-1.656A1.366,1.366,0,0,0,13,10.677c0-.468-.208-.539-.208-.539a3.511,3.511,0,0,0,.375-1.393c0-1.363-.684-2.411-1.833-2.411A1.77,1.77,0,0,0,10,5.667Z" transform="translate(36 227)" fill="#fcffff"/>
  </g>
</svg>
