<svg id="Search_Glyph_-_Light" data-name="Search Glyph - Light" xmlns="http://www.w3.org/2000/svg" width="24" height="19" viewBox="0 0 24 19">
  <g id="Search_Glyph" data-name="Search Glyph">
    <rect id="frame" width="24" height="19" fill="none"/>
    <path id="icons8-attach" d="M15.56,3.018a3.717,3.717,0,0,0-2.707,1.169L7.5,9.835a5.587,5.587,0,0,0,0,7.622.669.669,0,0,0,.218.153h0a4.992,4.992,0,0,0,7.1-.154l3.766-3.974a.669.669,0,1,0-.97-.919L13.85,16.537a3.633,3.633,0,0,1-5.381,0,4.266,4.266,0,0,1,0-5.783l5.353-5.648a2.335,2.335,0,0,1,3.475,0,2.788,2.788,0,0,1,0,3.772l-4.873,5.142a1.038,1.038,0,0,1-1.57,0,1.311,1.311,0,0,1,0-1.762l3.919-4.136A.669.669,0,1,0,13.8,7.2L9.884,11.338a2.631,2.631,0,0,0,0,3.6.669.669,0,0,0,.225.155,2.4,2.4,0,0,0,3.287-.155L18.268,9.8A4.084,4.084,0,0,0,18.406,4.4a.669.669,0,0,0-.137-.217A3.72,3.72,0,0,0,15.56,3.018Z" transform="translate(0.003 -1.518)" fill="#7d8da4"/>
  </g>
</svg>
