<svg xmlns="http://www.w3.org/2000/svg" width="36" height="36" viewBox="0 0 36 36">
  <g id="Group_234289" data-name="Group 234289" transform="translate(-315 -764)">
    <rect id="Rectangle_18740" data-name="Rectangle 18740" width="36" height="36" rx="18" transform="translate(315 764)" fill="rgba(39,66,104,0.06)"/>
    <path id="icons8-camera" d="M9.874,4A1.533,1.533,0,0,0,8.5,4.884l-.3.631A1.535,1.535,0,0,1,6.818,6.4H3.538A1.57,1.57,0,0,0,2,8V18.4A1.57,1.57,0,0,0,3.538,20H20.462A1.57,1.57,0,0,0,22,18.4V8a1.57,1.57,0,0,0-1.538-1.6h-3.28a1.533,1.533,0,0,1-1.376-.884l-.3-.631A1.535,1.535,0,0,0,14.126,4Zm-4.8.8a.785.785,0,0,0-.769.8H6.615a.785.785,0,0,0-.769-.8ZM12,7.2a5.5,5.5,0,0,1,5.385,5.6A5.5,5.5,0,0,1,12,18.4a5.5,5.5,0,0,1-5.385-5.6A5.5,5.5,0,0,1,12,7.2Zm6.923.8a.8.8,0,1,1-.769.8A.785.785,0,0,1,18.923,8ZM12,8.8a3.925,3.925,0,0,0-3.846,4A3.925,3.925,0,0,0,12,16.8a3.925,3.925,0,0,0,3.846-4A3.925,3.925,0,0,0,12,8.8Z" transform="translate(321 770)" fill="#7788a0"/>
  </g>
</svg>
