<svg xmlns="http://www.w3.org/2000/svg" width="24" height="24" viewBox="0 0 24 24">
  <g id="Group_62506" data-name="Group 62506" transform="translate(-3375 -613)">
    <circle id="Ellipse_237" data-name="Ellipse 237" cx="12" cy="12" r="12" transform="translate(3375 613)" fill="#fff" opacity="0"/>
    <path id="icons8_external_link_1" d="M18.085,2.99a.888.888,0,0,0-.1.009H13.661a.888.888,0,1,0,0,1.777h2.3L7.7,13.031a.888.888,0,1,0,1.256,1.256l8.256-8.256v2.3a.888.888,0,1,0,1.777,0V4a.888.888,0,0,0-.906-1.01ZM4.777,3A1.79,1.79,0,0,0,3,4.776V17.213A1.79,1.79,0,0,0,4.777,18.99H17.214a1.79,1.79,0,0,0,1.777-1.777v-5.33a.888.888,0,1,0-1.777,0v5.33H4.777V4.776h5.33a.888.888,0,1,0,0-1.777Z" transform="translate(3376 614.01)" fill="#929fb2"/>
  </g>
</svg>
