<svg xmlns="http://www.w3.org/2000/svg" width="32" height="32" viewBox="0 0 32 32">
  <g id="Icon" transform="translate(-0.5 -3.961)">
    <rect id="Frame" width="32" height="32" transform="translate(0.5 3.961)" fill="none"/>
    <path id="icons8-chat_bubble" d="M12,3C6.477,3,2,6.788,2,11.462A7.991,7.991,0,0,0,5.547,17.92a3.4,3.4,0,0,1-1.758,3.565l0,0a.384.384,0,0,0,.137.744l.033,0a6.761,6.761,0,0,0,4.558-2.093,1.489,1.489,0,0,1,1.31-.416,11.645,11.645,0,0,0,2.175.2c5.523,0,10-3.788,10-8.462S17.523,3,12,3ZM7.385,9.923a1.538,1.538,0,1,1-1.538,1.538A1.538,1.538,0,0,1,7.385,9.923Zm4.615,0a1.538,1.538,0,1,1-1.538,1.538A1.538,1.538,0,0,1,12,9.923Zm4.615,0a1.538,1.538,0,1,1-1.538,1.538A1.538,1.538,0,0,1,16.615,9.923Z" transform="translate(4.5 7.345)" fill="#0075f4"/>
  </g>
</svg>
