<svg xmlns="http://www.w3.org/2000/svg" width="26.543" height="33.179" viewBox="0 0 26.543 33.179">
  <path id="icons8_image_document_1" d="M19.216,2H7.318A3.317,3.317,0,0,0,4,5.318V31.861a3.317,3.317,0,0,0,3.318,3.318H27.226a3.317,3.317,0,0,0,3.318-3.318V13.327a3.319,3.319,0,0,0-.972-2.346L21.562,2.972A3.319,3.319,0,0,0,19.216,2ZM12.295,16.931a1.659,1.659,0,1,1-1.659,1.659A1.66,1.66,0,0,1,12.295,16.931ZM26.4,31.861H7.318L12.781,26.4a1.657,1.657,0,0,1,2.346,0l2.145,2.145,5.463-5.463a1.657,1.657,0,0,1,2.346,0l2.145,2.145v5.806A.83.83,0,0,1,26.4,31.861ZM18.931,11.881V4.415l9.124,9.2H20.59A1.722,1.722,0,0,1,18.931,11.881Z" transform="translate(-4 -2)" fill="#929fb2"/>
</svg>
