<svg xmlns="http://www.w3.org/2000/svg" width="16.842" height="20" viewBox="0 0 16.842 20">
  <path id="icons8-copy" d="M13.526,5a2.908,2.908,0,0,0-2.895,2.895V19.474a2.908,2.908,0,0,0,2.895,2.895h8.421a2.908,2.908,0,0,0,2.895-2.895V7.895A2.908,2.908,0,0,0,21.947,5Zm0,1.579h8.421a1.315,1.315,0,0,1,1.316,1.316V19.474a1.315,1.315,0,0,1-1.316,1.316H13.526a1.315,1.315,0,0,1-1.316-1.316V7.895A1.315,1.315,0,0,1,13.526,6.579Zm-3.895.789A4.924,4.924,0,0,0,8,11.053V20a5.032,5.032,0,0,0,5,5h5.789a5.1,5.1,0,0,0,3.684-1.631,1.973,1.973,0,0,1-.526.052H13A3.414,3.414,0,0,1,9.579,20V7.895A1.973,1.973,0,0,1,9.631,7.368Z" transform="translate(-8 -5)" fill="#274268"/>
</svg>
