<svg xmlns="http://www.w3.org/2000/svg" width="28" height="28" viewBox="0 0 28 28">
  <g id="Group_234080" data-name="Group 234080" transform="translate(-346 -122)">
    <rect id="Rectangle_18700" data-name="Rectangle 18700" width="28" height="28" rx="4" transform="translate(346 122)" fill="#edeff2"/>
    <path id="icons8_forward_arrow_1" d="M2.808,21.769A.807.807,0,0,1,2,20.961c0-1.3.392-12.476,13.731-12.91V4.808a.807.807,0,0,1,1.379-.571L22.763,9.89a.807.807,0,0,1,0,1.142l-5.654,5.654a.807.807,0,0,1-1.379-.571V12.9c-4.943.138-8.586,1.554-10.567,4.118a7.14,7.14,0,0,0-1.548,3.948A.807.807,0,0,1,2.808,21.769Z" transform="translate(347.5 122.667)" fill="#5d718d"/>
  </g>
</svg>
