<svg xmlns="http://www.w3.org/2000/svg" width="32" height="32" viewBox="0 0 32 32">
  <g id="Icon" transform="translate(0.5 -3.961)">
    <rect id="Frame" width="32" height="32" transform="translate(-0.5 3.961)" fill="none"/>
    <path id="icons8-home_page" d="M13,2a.825.825,0,0,0-.562.226l0,0-.024.021L3.265,9.723l0,0a.829.829,0,0,0,.566,1.439h.833v9.167A1.666,1.666,0,0,0,6.333,22H19.667a1.666,1.666,0,0,0,1.667-1.667V11.167h.833a.829.829,0,0,0,.566-1.439l0,0-3.068-2.51V3.667a.834.834,0,0,0-.833-.833H18a.834.834,0,0,0-.833.833v1.5L13.589,2.244l-.024-.021,0,0A.825.825,0,0,0,13,2ZM10.5,13.667h5v6.667h-5Z" transform="translate(2.5 7.961)" fill="#929fb2"/>
  </g>
</svg>
