<svg xmlns="http://www.w3.org/2000/svg" width="36" height="36" viewBox="0 0 36 36">
  <g id="Group_234293" data-name="Group 234293" transform="translate(-54 -795)">
    <rect id="Rectangle_18740" data-name="Rectangle 18740" width="36" height="36" rx="18" transform="translate(54 795)" fill="rgba(39,66,104,0.06)"/>
    <path id="icons8-full_image" d="M3.538,5A1.57,1.57,0,0,0,2,6.6V19.4A1.57,1.57,0,0,0,3.538,21H20.462A1.57,1.57,0,0,0,22,19.4V6.6A1.57,1.57,0,0,0,20.462,5ZM18.154,7.4A1.6,1.6,0,1,1,16.615,9,1.57,1.57,0,0,1,18.154,7.4Zm-10.769,4a1.82,1.82,0,0,1,1.316.567l2.509,2.609L12,15.4l.889.925a.806.806,0,0,0,1.173,0,.891.891,0,0,0,0-1.225l-.886-.92.584-.608a1.811,1.811,0,0,1,2.632,0L19.692,17v1.6H4.308V13.8l1.761-1.831A1.82,1.82,0,0,1,7.385,11.4Z" transform="translate(60 800)" fill="#7788a0"/>
  </g>
</svg>
