<svg xmlns="http://www.w3.org/2000/svg" width="48" height="48" viewBox="0 0 48 48">
  <g id="Group_243" data-name="Group 243" transform="translate(-20 -320)">
    <rect id="Rectangle_14774" data-name="Rectangle 14774" width="48" height="48" rx="8" transform="translate(20 320)" fill="#b9d8fb"/>
    <path id="icons8_rotate_right" d="M17,3A14.018,14.018,0,0,0,3,17a1.167,1.167,0,1,0,2.333,0,11.651,11.651,0,0,1,19.3-8.8l-2.969,2.969h7v-7L26.288,6.546A13.947,13.947,0,0,0,17,3ZM29.833,15.833A1.167,1.167,0,1,0,31,17,1.167,1.167,0,0,0,29.833,15.833ZM5.144,20.746a1.167,1.167,0,1,0,1.167,1.167A1.167,1.167,0,0,0,5.144,20.746Zm23.712,0a1.167,1.167,0,1,0,1.167,1.167A1.167,1.167,0,0,0,28.856,20.746ZM7.926,24.907a1.167,1.167,0,1,0,1.167,1.167A1.167,1.167,0,0,0,7.926,24.907Zm18.147,0a1.167,1.167,0,1,0,1.167,1.167A1.167,1.167,0,0,0,26.074,24.907ZM12.087,27.689a1.167,1.167,0,1,0,1.167,1.167A1.167,1.167,0,0,0,12.087,27.689Zm9.825,0a1.167,1.167,0,1,0,1.167,1.167A1.167,1.167,0,0,0,21.913,27.689ZM17,28.667a1.167,1.167,0,1,0,1.167,1.167A1.167,1.167,0,0,0,17,28.667Z" transform="translate(27 327)" fill="#0075f4"/>
  </g>
</svg>
