<svg xmlns="http://www.w3.org/2000/svg" width="14" height="10" viewBox="0 0 14 10">
  <path id="icons8-double_tick" d="M3.64,19a.541.541,0,0,1-.4-.178L.164,15.488a.642.642,0,0,1,0-.857.53.53,0,0,1,.792,0L3.6,17.493,9.929,9.219a.529.529,0,0,1,.788-.08.638.638,0,0,1,.074.852l-6.72,8.788a.537.537,0,0,1-.4.219Zm3.106,0a.539.539,0,0,0,.4-.219l6.72-8.788a.638.638,0,0,0-.074-.852.53.53,0,0,0-.788.08L6.681,17.493l-.125-.135a.53.53,0,0,0-.792,0,.642.642,0,0,0,0,.857l.56.606a.541.541,0,0,0,.4.178Z" transform="translate(0 -8.999)" fill="#fff"/>
</svg>
