<svg xmlns="http://www.w3.org/2000/svg" width="48.001" height="48.001" viewBox="0 0 48.001 48.001">
  <g id="Group_234240" data-name="Group 234240" transform="translate(-79 -277)">
    <path id="Subtraction_2" data-name="Subtraction 2" d="M24,48A24.007,24.007,0,0,1,14.658,1.885a24,24,0,0,1,27.89,37.346,4.5,4.5,0,1,0-6.908,5.762A24.016,24.016,0,0,1,24,48Z" transform="translate(79 277.001)" fill="#8a8f9a"/>
    <circle id="Ellipse_258" data-name="Ellipse 258" cx="3.75" cy="3.75" r="3.75" transform="translate(114.251 315.251)" fill="#2e8b57"/>
    <path id="icons8_user_1" d="M15.957,3A6.521,6.521,0,0,0,9.435,9.522v1.087a6.522,6.522,0,1,0,13.043,0V9.522A6.521,6.521,0,0,0,15.957,3Zm0,17.391c-4.354,0-9.941,2.355-11.549,4.445A1.974,1.974,0,0,0,5.987,28H25.924a1.974,1.974,0,0,0,1.582-3.163C25.9,22.748,20.309,20.391,15.954,20.391Z" transform="translate(87.001 285.5)" fill="#fff"/>
  </g>
</svg>
