<svg xmlns="http://www.w3.org/2000/svg" width="48" height="48" viewBox="0 0 48 48">
  <g id="Group_243" data-name="Group 243" transform="translate(-20 -321)">
    <rect id="Rectangle_14774" data-name="Rectangle 14774" width="48" height="48" rx="8" transform="translate(20 321)" fill="#8a8f9a"/>
    <path id="icons8_user_1" d="M15.957,3A6.521,6.521,0,0,0,9.435,9.522v1.087a6.522,6.522,0,1,0,13.043,0V9.522A6.521,6.521,0,0,0,15.957,3Zm0,17.391c-4.354,0-9.941,2.355-11.549,4.445A1.974,1.974,0,0,0,5.987,28H25.924a1.974,1.974,0,0,0,1.582-3.163C25.9,22.748,20.309,20.391,15.954,20.391Z" transform="translate(28.001 329.5)" fill="#fff"/>
  </g>
</svg>
