<svg xmlns="http://www.w3.org/2000/svg" xmlns:xlink="http://www.w3.org/1999/xlink" width="48" height="48.5" viewBox="0 0 48 48.5">
  <defs>
    <filter id="Rectangle_15666" x="0" y="0" width="48" height="48.5" filterUnits="userSpaceOnUse">
      <feOffset dy="0.5" input="SourceAlpha"/>
      <feGaussianBlur result="blur"/>
      <feFlood flood-opacity="0.161"/>
      <feComposite operator="in" in2="blur"/>
      <feComposite in="SourceGraphic"/>
    </filter>
  </defs>
  <g id="Group_234140" data-name="Group 234140" transform="translate(-28 -592)">
    <g transform="matrix(1, 0, 0, 1, 28, 592)" filter="url(#Rectangle_15666)">
      <rect id="Rectangle_15666-2" data-name="Rectangle 15666" width="48" height="48" rx="6" fill="#edeff2" opacity="0"/>
    </g>
    <path id="icons8_pdf" d="M9.2,2A3.624,3.624,0,0,0,5.6,5.6v9A3.6,3.6,0,0,0,2,18.2v9a3.6,3.6,0,0,0,3.6,3.6v3.6A3.624,3.624,0,0,0,9.2,38H30.8a3.624,3.624,0,0,0,3.6-3.6V11.745a1.8,1.8,0,0,0-.527-1.272L25.927,2.527A1.8,1.8,0,0,0,24.655,2Zm0,3.6H23.6V11a1.8,1.8,0,0,0,1.8,1.8h5.4v1.8H9.2ZM5.6,18.2H8.3a2.7,2.7,0,1,1,0,5.4H7.4v3.6H5.6Zm16.2,0h5.4V20H23.6v1.8h2.879v1.8H23.6v3.6H21.8Zm-9,.042h2.932c2.848,0,4.268,1.713,4.268,3.79v1.389c0,2.1-1.423,3.779-4.293,3.779H12.8ZM7.4,20v1.8h.9a.9.9,0,1,0,0-1.8Zm7.2.042V25.4h1.107c1.138,0,2.493-.345,2.493-1.979V22.032c0-1.645-1.341-1.99-2.468-1.99ZM9.2,30.8H30.8v3.6H9.2Z" transform="translate(34 596)" fill="#ff3b2f"/>
  </g>
</svg>
