<svg xmlns="http://www.w3.org/2000/svg" width="32" height="32" viewBox="0 0 32 32">
  <g id="Group_62517" data-name="Group 62517" transform="translate(-30 -222)">
    <circle id="Ellipse_239" data-name="Ellipse 239" cx="16" cy="16" r="16" transform="translate(30 222)" fill="#ff8000"/>
    <path id="icons8-developer" d="M11.678,2A8.456,8.456,0,0,0,5.873,16.81a2.975,2.975,0,0,1,.974,2.243V22h7.692V20.8a1.537,1.537,0,0,1,1.052-1.459l2.512-.837a1.54,1.54,0,0,0,1.052-1.46V14.111l1.744-.6a.767.767,0,0,0,.389-1.226l-.021-.026-.023-.026L19.123,9.691C18.814,5.45,15.971,2.111,11.678,2Zm.4,4.626a.757.757,0,0,1,.3,0,.768.768,0,0,1,.6.9l-1.538,7.692a.768.768,0,0,1-.753.619.73.73,0,0,1-.152-.015.77.77,0,0,1-.6-.906l1.538-7.692A.769.769,0,0,1,12.078,6.629ZM7.758,8.168a.777.777,0,0,1,.284.117.768.768,0,0,1,.213,1.067L7,11.231l1.255,1.881a.769.769,0,1,1-1.28.853L5.437,11.658a.769.769,0,0,1,0-.853L6.976,8.5A.766.766,0,0,1,7.758,8.168Zm7.405,0a.769.769,0,0,1,.784.329L17.487,10.8a.769.769,0,0,1,0,.853l-1.538,2.308a.769.769,0,1,1-1.28-.853l1.255-1.881L14.668,9.35a.77.77,0,0,1,.5-1.182Z" transform="translate(33.769 226)" fill="#fff"/>
  </g>
</svg>
