<svg xmlns="http://www.w3.org/2000/svg" width="32" height="32" viewBox="0 0 32 32">
  <g id="Icon" transform="translate(-0.5 -3.961)">
    <rect id="Frame" width="32" height="32" transform="translate(0.5 3.961)" fill="none"/>
    <path id="icons8-time_machine" d="M13,3a10,10,0,1,0,5.583,1.7l.955-1.226L15.5,3.33l1.165,3.836.885-1.138a8.308,8.308,0,0,1,3.737,6.141.833.833,0,0,0,0,1.663,8.322,8.322,0,0,1-7.461,7.459.833.833,0,0,0-1.663,0,8.322,8.322,0,0,1-7.461-7.461.833.833,0,0,0,0-1.665A8.321,8.321,0,0,1,13,4.667.833.833,0,1,0,13,3Zm-.013,4.155a.833.833,0,0,0-.82.845v4.583l-3,2.249a.834.834,0,0,0,1,1.335l3.333-2.5A.833.833,0,0,0,13.833,13V8a.833.833,0,0,0-.846-.845Z" transform="translate(3.5 6.961)" fill="#929fb2"/>
  </g>
</svg>
