<svg xmlns="http://www.w3.org/2000/svg" width="28" height="28" viewBox="0 0 28 28">
  <g id="Group_234268" data-name="Group 234268" transform="translate(-211 -263)">
    <rect id="Rectangle_18738" data-name="Rectangle 18738" width="28" height="28" rx="14" transform="translate(211 263)" fill="#8096b5"/>
    <path id="icons8-play" d="M18,10a.575.575,0,0,0-.309-.5l0-.006L5.935,3.109l-.012.006A.58.58,0,0,0,5.591,3,.587.587,0,0,0,5,3.583s0,0,0,0H5V16.414H5s0,0,0,0a.579.579,0,0,0,.924.469l.011.006,11.759-6.383,0-.006A.575.575,0,0,0,18,10Z" transform="translate(214 267)" fill="#fff"/>
  </g>
</svg>
