<svg xmlns="http://www.w3.org/2000/svg" width="37" height="37" viewBox="0 0 37 37">
  <g id="Group_234285" data-name="Group 234285" transform="translate(-314.5 -763.5)">
    <rect id="Rectangle_18740" data-name="Rectangle 18740" width="36" height="36" rx="18" transform="translate(315 764)" fill="rgba(39,66,104,0.06)" stroke="rgba(0,0,0,0)" stroke-width="1"/>
    <path id="Path_59392" data-name="Path 59392" d="M-4.5-1.931V-3.837a.678.678,0,0,1,.207-.5.678.678,0,0,1,.5-.207.689.689,0,0,1,.507.207.678.678,0,0,1,.207.5v1.85a5.74,5.74,0,0,0,.657,2.8A4.63,4.63,0,0,0-.579,2.674a5.674,5.674,0,0,0,2.8.662,5.647,5.647,0,0,0,2.793-.662A4.639,4.639,0,0,0,6.858.811a5.74,5.74,0,0,0,.657-2.8v-1.85a.678.678,0,0,1,.207-.5.689.689,0,0,1,.507-.207.678.678,0,0,1,.5.207.678.678,0,0,1,.207.5v1.906a6.876,6.876,0,0,1-.756,3.268A5.975,5.975,0,0,1,6.069,3.623,6.833,6.833,0,0,1,2.924,4.632V6.82H6.407a.705.705,0,0,1,.714.714.678.678,0,0,1-.207.5.689.689,0,0,1-.507.207H-1.978a.689.689,0,0,1-.507-.207.678.678,0,0,1-.207-.5.689.689,0,0,1,.207-.507.689.689,0,0,1,.507-.207H1.506V4.632A6.833,6.833,0,0,1-1.64,3.623,5.975,5.975,0,0,1-3.748,1.336,6.876,6.876,0,0,1-4.5-1.931ZM2.219,1.318A3.079,3.079,0,0,1,.576.886a2.966,2.966,0,0,1-1.1-1.2,3.811,3.811,0,0,1-.394-1.77V-8.363a3.811,3.811,0,0,1,.394-1.77,2.966,2.966,0,0,1,1.1-1.2,3.079,3.079,0,0,1,1.643-.432,3.086,3.086,0,0,1,1.638.432,2.923,2.923,0,0,1,1.1,1.2,3.849,3.849,0,0,1,.39,1.77v6.282a3.849,3.849,0,0,1-.39,1.77,2.923,2.923,0,0,1-1.1,1.2A3.086,3.086,0,0,1,2.219,1.318Z" transform="translate(330.785 784.762)" fill="rgba(39,66,104,0.6)"/>
  </g>
</svg>
