<svg xmlns="http://www.w3.org/2000/svg" width="24" height="24" viewBox="0 0 24 24">
  <g id="Group_62499" data-name="Group 62499" transform="translate(-314 -125)">
    <rect id="Rectangle_15665" data-name="Rectangle 15665" width="24" height="24" transform="translate(314 125)" fill="#fff" opacity="0"/>
    <path id="icons8-check_all" d="M21.72,2.3a1.264,1.264,0,0,1,.905.383,1.329,1.329,0,0,1,0,1.849l-11.6,11.384a1.261,1.261,0,0,1-1.811,0L5.375,11.989a1.329,1.329,0,0,1,0-1.849,1.263,1.263,0,0,1,1.811,0l2.937,3L20.815,2.679A1.264,1.264,0,0,1,21.72,2.3Z" transform="translate(312 127.704)" fill="#007aff"/>
  </g>
</svg>
