<svg xmlns="http://www.w3.org/2000/svg" width="20" height="20" viewBox="0 0 20 20">
  <path id="icons8-barber_scissors" d="M5.188,10.452a2.854,2.854,0,0,0-3.406,2.176,2.774,2.774,0,0,0,.171,1.78l-.57.286a.715.715,0,1,0,.638,1.281l.714-.358a.667.667,0,0,0,.111-.087l.006.005a2.687,2.687,0,0,0,1.092.508,2.73,2.73,0,0,0,.628.072,3.065,3.065,0,0,0,.721-.093l-.007.021c.014-.007.05-.021.107-.05.007-.007.021-.007.029-.014a2.776,2.776,0,0,0,.678-.315.866.866,0,0,0,.1-.072c0-.007,0-.007.007-.007L8.85,14.26V11.039L7.336,12.556A2.874,2.874,0,0,0,5.188,10.452ZM4.26,14.646a1.426,1.426,0,0,1-1.085-1.711,1.42,1.42,0,0,1,1.392-1.117,1.486,1.486,0,0,1,.307.029,1.433,1.433,0,0,1,1.085,1.711,1.371,1.371,0,0,1-.628.895A1.413,1.413,0,0,1,4.26,14.646Zm10.41-3.3c2.363-1.188,4.377-2.2,4.891-2.455,1.428-.716,1.428-2.863,1.428-2.863L14.27,8.275ZM15.99,18.2A2.857,2.857,0,0,0,14.962,16a2.827,2.827,0,0,0-1.2-.594,2.6,2.6,0,0,0-.628-.072,2.863,2.863,0,0,0-.493.043c.193-.565.486-1.446.8-2.412l-.121-.945-.428-3.286-1-7.674c-1.078.172-1.614.959-1.614,2.82V18.2a2.856,2.856,0,1,0,5.712,0Zm-5-7.158a.714.714,0,1,1,.714.716A.717.717,0,0,1,10.992,11.039Zm.714,7.158a1.409,1.409,0,0,1,.064-.422,1.43,1.43,0,1,1-.064.422Z" transform="translate(-0.988 -1.06)" fill="#274268"/>
</svg>
