<svg xmlns="http://www.w3.org/2000/svg" width="36" height="36" viewBox="0 0 36 36">
  <g id="Group_234286" data-name="Group 234286" transform="translate(-315 -764)">
    <rect id="Rectangle_18740" data-name="Rectangle 18740" width="36" height="36" rx="18" transform="translate(315 764)" fill="#0075f4"/>
    <path id="icons8-sent" d="M4.308,3a.76.76,0,0,0-.769.75.732.732,0,0,0,.029.2l0,0L4.308,9,2,10.5,18.154,12,2,13.5,4.308,15l-.739,5.046a.733.733,0,0,0-.03.2.76.76,0,0,0,.769.75.786.786,0,0,0,.3-.06h0l.033-.016.017-.007.014-.007,16.861-8.219,0,0a.741.741,0,0,0,0-1.378h0L4.676,3.092q-.034-.019-.069-.034A.786.786,0,0,0,4.308,3Z" transform="translate(321 770)" fill="#fcffff"/>
  </g>
</svg>
