<svg xmlns="http://www.w3.org/2000/svg" width="20" height="20" viewBox="0 0 20 20">
  <path id="icons8_autograph" d="M20.372,1.987a.914.914,0,0,0-.818.559l-.395.97-.375-.137a1.343,1.343,0,0,0-1.7.733c-.679,1.726-1.9,4.757-2.126,5.4a.392.392,0,0,1-.31.261.969.969,0,0,1-.279.04.447.447,0,0,0-.477.412.443.443,0,0,0,.431.456,1.934,1.934,0,0,0,.6-.079,1.347,1.347,0,0,0,.9-.816s0,0,0,0c.174-.5,1.432-3.637,2.114-5.37a.407.407,0,0,1,.529-.227l.353.128L17.207,8.565,20.564,9.82,22.05,5.9a.427.427,0,0,0,.043-.084l.828-2.037v0A.864.864,0,0,0,22.4,2.654h0l-1.668-.61h0A.93.93,0,0,0,20.372,1.987Zm.031.868,1.669.61,0,0v0h0l-.392.966-1.671-.607.393-.967v0ZM7.531,8.947A2.841,2.841,0,0,0,5.71,9.66a5.823,5.823,0,0,0-1.26,1.571,12.617,12.617,0,0,0-1.3,3.4l0,.01a9.569,9.569,0,0,0-.141,2.527,3.3,3.3,0,0,0,.429,1.45,1.617,1.617,0,0,0,1.365.76,3.483,3.483,0,0,0,2.22-.822c.24-.187.434-.353.584-.446a.4.4,0,0,1,.137-.043c.026.172.042.421.07.693a2.8,2.8,0,0,0,.2.882,1.065,1.065,0,0,0,.307.41.949.949,0,0,0,.569.2,1,1,0,0,0,.61-.222,3.711,3.711,0,0,0,.388-.338,3.213,3.213,0,0,1,.3-.259c.076-.054.11-.05.072-.05.007,0,.006,0,.012,0,.019.044.058.207.122.441A2.664,2.664,0,0,0,11.9,21.541a.464.464,0,0,0,.611-.19.426.426,0,0,0-.2-.585A1.584,1.584,0,0,1,11.269,19.6a2.58,2.58,0,0,0-.194-.634.99.99,0,0,0-.818-.458,1.03,1.03,0,0,0-.614.222,3.583,3.583,0,0,0-.394.34,3.406,3.406,0,0,1-.295.26.353.353,0,0,1-.061.037.2.2,0,0,1-.043-.069,2.414,2.414,0,0,1-.128-.624c-.027-.261-.039-.537-.082-.79a1.243,1.243,0,0,0-.114-.38.661.661,0,0,0-.481-.354,1.433,1.433,0,0,0-.928.229,7.344,7.344,0,0,0-.666.5,2.424,2.424,0,0,1-1.646.627.59.59,0,0,1-.587-.339,2.656,2.656,0,0,1-.3-1.083,9.171,9.171,0,0,1,.13-2.285s0,0,0,0a12.017,12.017,0,0,1,1.2-3.148,5.059,5.059,0,0,1,1.063-1.338,1.876,1.876,0,0,1,1.223-.5,1.041,1.041,0,0,1,1.022.592,3.314,3.314,0,0,1,.341,1.582.455.455,0,0,0,.909,0,4,4,0,0,0-.454-2A2.071,2.071,0,0,0,7.531,8.947Zm9.3.554-3.129,8c0,.006,0,.009,0,.014a.418.418,0,0,0-.031.183l.127,2.915-.329.768a.429.429,0,0,0,.248.567.462.462,0,0,0,.593-.238l.287-.669,2.364-2.127a.429.429,0,0,0,.139-.26l3.09-7.905Zm-2.247,8.321,1.614.589-1.529,1.375Z" transform="translate(-2.979 -1.987)" fill="#274268"/>
</svg>
