<svg xmlns="http://www.w3.org/2000/svg" width="32" height="32" viewBox="0 0 32 32">
  <g id="Group_62518" data-name="Group 62518" transform="translate(-30 -222)">
    <circle id="Ellipse_239" data-name="Ellipse 239" cx="16" cy="16" r="16" transform="translate(30 222)" fill="#5d718d"/>
    <path id="icons8-online_support" d="M12.462,2A8.512,8.512,0,0,0,4,10.462v3.846a3.219,3.219,0,0,0,1.032,2.453,1.578,1.578,0,0,0,.664.367C5.976,17.85,7.762,22,12.462,22c.026,0,.051,0,.077,0h.006a6.753,6.753,0,0,0,4.243-1.535H12.462c-4.1,0-5.424-4.09-5.424-4.09l-.134-.4-.41-.1a1.176,1.176,0,0,1-.449-.264,1.525,1.525,0,0,1-.506-1.3v-.769h.769c0-5.385,7.692-1.538,10-6.923,0,0,2.308,2.123,2.308,6.923v2.308h.63a2.288,2.288,0,0,1-2.168,1.538H13.929a1.151,1.151,0,0,0-1.083-.769h-.769a1.154,1.154,0,1,0,0,2.308h.769a1.154,1.154,0,0,0,.2-.021.769.769,0,0,0,.183.021h3.846a3.857,3.857,0,0,0,3.8-3.263,1.531,1.531,0,0,0,.819-1.352v-.769a1.531,1.531,0,0,0-.769-1.325V10.462c0-3.077-1.538-6.923-4.615-6.923C16.308,3.538,15.538,2,12.462,2Z" transform="translate(33.154 226)" fill="#fff"/>
  </g>
</svg>
