<svg xmlns="http://www.w3.org/2000/svg" width="36" height="36" viewBox="0 0 36 36">
  <g id="Group_234291" data-name="Group 234291" transform="translate(-315 -764)">
    <rect id="Rectangle_18740" data-name="Rectangle 18740" width="36" height="36" rx="18" transform="translate(315 764)" fill="rgba(39,66,104,0.06)"/>
    <path id="icons8-documents" d="M5.818,4A1.818,1.818,0,0,0,4,5.818V22.182A1.818,1.818,0,0,0,5.818,24H7.233a3.6,3.6,0,0,1-.506-1.818V5.818A3.6,3.6,0,0,1,7.233,4Zm4.545,0A1.818,1.818,0,0,0,8.545,5.818V22.182A1.818,1.818,0,0,0,10.364,24H22.182A1.818,1.818,0,0,0,24,22.182V9.909a.908.908,0,0,0-.266-.643l-5-5A.908.908,0,0,0,18.091,4Zm7.273,1.731,4.632,4.632H18.545a.909.909,0,0,1-.909-.909ZM13.091,14h6.364a.909.909,0,0,1,0,1.818H13.091a.909.909,0,1,1,0-1.818Zm0,3.636h4.545a.909.909,0,0,1,0,1.818H13.091a.909.909,0,1,1,0-1.818Z" transform="translate(319 768)" fill="#7d8da4"/>
  </g>
</svg>
